#!OML:ASF F:\VICON\USERDATA\INSTALL\rory3\rory3.ASF
:FULLY-SPECIFIED
:DEGREES
18
root 0.504237802762638 17.551797279788303 -13.783391422589315 5.6686751251448095 -1.1104294172059568 -1.7213113820800123
lfemur -9.662678183920054 8.411946749245063 -18.29890435447399
ltibia 17.029807198438533
lfoot -11.836900471426661 1.787255909338322
ltoes -8.167365668820835
rfemur -10.699407737139325 -3.8408113520824916 20.15290631927843
rtibia 19.738607825636823
rfoot -14.011900937279488 -1.46344533993511
rtoes 7.580263819845729
lowerback -1.4106624825089318 -0.35941626871412674 0.4187897181701785
upperback 3.9710689955315592 -0.5683626569943332 1.6485528663806497
thorax 4.902470163265366 -0.3022475725398984 1.437545963722179
lowerneck -16.14859685438241 0.8400987336531346 -2.1181738377649
upperneck 26.829590434652907 1.8647031095813074 -0.19278075195670055
head 11.380588730025316 0.5978173063646561 0.5581133935368543
lclavicle 5.751011899191846e-16 -3.123762280157777e-16
lhumerus -17.266202372280947 -7.556212034204953 90.69029343371287
lradius 19.555097068922763
lwrist 3.853193067507787
lhand -24.85400770878966 -4.038669938974866
lfingers 7.125019999999998
lthumb 1.6525722994037377 25.934690067412834
rclavicle 5.751011899191846e-16 -3.123762280157777e-16
rhumerus -18.704603458450915 -10.608908144018596 -84.66529153827005
rradius 24.03089939126083
rwrist 32.526704266276106
rhand -19.405206638014956 -26.271900991014224
rfingers 7.125019999999998
rthumb 6.914043379123275 -56.139001143584586
19
root 0.5074646841187962 17.552397271414996 -13.78659144485224 5.69222485323014 -1.1260493066355872 -1.719481404628938
lfemur -9.701457261361586 8.396806879808375 -18.3175042316066
ltibia 17.034707175756683
lfoot -11.822100498684017 1.801325800261929
ltoes -8.101845841128666
rfemur -10.730607451972478 -3.8553012277954624 20.137906468783623
rtibia 19.732707026708496
rfoot -14.006600968945204 -1.4176055869096262
rtoes 7.712633643554723
lowerback -1.4073327073185258 -0.3474444982303614 0.43729248444527374
upperback 3.966069016377439 -0.552918881460579 1.6478428851658906
thorax 4.894800243428194 -0.2938148313431964 1.4273060809202915
lowerneck -16.133696968335634 0.8373547816000539 -2.127343671314147
upperneck 26.81629017893745 1.855773193609751 -0.16866092677159977
head 11.372189058571424 0.5961933599329373 0.5670431991429581
lclavicle 5.751011737839074e-16 -3.123762030303283e-16
lhumerus -17.267802358024966 -7.613252007059931 90.73499353036551
lradius 19.56459706369421
lwrist 3.8945129980189312
lhand -24.869007594303746 -4.094409749608307
lfingers 7.125019999999998
lthumb 1.6380823998686025 25.879090336550362
rclavicle 5.751011737839074e-16 -3.123762030303283e-16
rhumerus -18.69010336308502 -10.702107940458008 -84.64099170705218
rradius 23.929499722663703
rwrist 32.67510404707137
rhand -19.359606942463287 -26.27160099683594
rfingers 7.125019999999998
rthumb 6.958042986763111 -56.13730116181337
20
root 0.5106155947541589 17.552797279473307 -13.789391121570706 5.70533517496114 -1.1324892630209624 -1.7177514346235718
lfemur -9.7306583158039 8.408256807328938 -18.33630409770762
ltibia 17.041507353757787
lfoot -11.810500500369667 1.789185665715186
ltoes -8.083666014531042
rfemur -10.76310761073999 -3.854011254233713 20.127406510648793
rtibia 19.73540789606058
rfoot -13.986300941896268 -1.4219554287525193
rtoes 7.631773617654001
lowerback -1.39280229974265 -0.33226379722650035 0.46747107837180013
upperback 3.9530390841028784 -0.533483183400331 1.6509128149158094
thorax 4.872200139411911 -0.28298714335254305 1.4146862819390944
lowerneck -16.12619698433088 0.8249420114411572 -2.1368834984039933
upperneck 26.84959023800248 1.839513417918739 -0.16248196995732692
head 11.383388880867997 0.5883186005981225 0.5687771656909375
lclavicle 5.751011846353394e-16 -3.12376201953393e-16
lhumerus -17.288202396456207 -7.6016620385134495 90.81369323741708
lradius 19.550897111876452
lwrist 3.898703018757062
lhand -24.958306945990447 -4.196279248264274
lfingers 7.125019999999998
lthumb 1.5518830662002419 25.777790769650824
rclavicle 5.751011846353394e-16 -3.12376201953393e-16
rhumerus -18.69450347341705 -10.737608100546183 -84.62249172926639
rradius 23.853699968997756
rwrist 32.7455038784534
rhand -19.322807201413035 -26.232701293857684
rfingers 7.125019999999998
rthumb 6.993512789313007 -56.09720145151409
21
root 0.5136094944731406 17.553097275286653 -13.791691737404978 5.717645046072423 -1.111659409180892 -1.715221474966861
lfemur -9.774257399354202 8.458036460199576 -18.354603950338966
ltibia 17.06970756362311
lfoot -11.82390049340111 1.7209860484529793
ltoes -8.066455907981297
rfemur -10.773407236096027 -3.841261347590864 20.11440662975522
rtibia 19.724007527763796
rfoot -13.97150097074427 -1.4460353913472006
rtoes 7.672083716883485
lowerback -1.3684724376201398 -0.33079682196882954 0.5026826314067031
upperback 3.922069228001015 -0.5324102049158864 1.6620225697918296
thorax 4.825710188983688 -0.28119518712721864 1.4065163789142159
lowerneck -16.100097093221972 0.8148962052921596 -2.1633530353860824
upperneck 26.88879025806324 1.8286835619341741 -0.14820006895519985
head 11.39288869526803 0.5821657903956339 0.5770369839284823
lclavicle 5.751011846353394e-16 -3.123762174616223e-16
lhumerus -17.35740224474114 -7.621421649384882 90.94099297282132
lradius 19.537097180434795
lwrist 3.873803049291366
lhand -24.990206666233977 -4.310168778341483
lfingers 7.125019999999998
lthumb 1.520983350878681 25.664191140498758
rclavicle 5.751011846353394e-16 -3.123762174616223e-16
rhumerus -18.736703310968416 -10.734208159660962 -84.60569175217661
rradius 23.83360003408473
rwrist 32.75680398383831
rhand -19.307807345742514 -26.24570118651767
rfingers 7.125019999999998
rthumb 7.0080726391418064 -56.10970136542412
